<svg id="superhero" xmlns="http://www.w3.org/2000/svg" width="147.2" height="275.18" viewBox="0 0 147.2 275.18"> <path id="shadow" d="M147.19,268.29c0,3.8-32.95,6.89-73.6,6.89S0,272.1,0,268.29s32.95-6.9,73.6-6.9S147.19,264.48,147.19,268.29Z" transform="translate(0.01 0)" fill="#d0d2d3"/><g id="robe"><path d="M133.32,68.33l-6.14-.91-53.56-8v-.06l-53.6,8-6.14.92-9.33,189s7.05,2.2,19.74.91h.06a5.67,5.67,0,0,1-.15-.69c0-.15-.05-.32-.06-.49v0c-.19-2.25.57-6.76,9.68-6.28,12.06.62,24.45,7.81,39.76.34V251c15.37,7.5,27.75.32,39.82-.33,9.11-.5,9.83,4,9.68,6.28v0a4.26,4.26,0,0,1-.06.5,5.17,5.17,0,0,1-.16.68h.06c12.69,1.3,19.74-.9,19.74-.9Z" transform="translate(0.01 0)" fill="#f29f05"/><path d="M24.28,258.14c-12.7,1.3-19.74-.9-19.74-.9L13.9,68.29,20,67.37c-.23,37.82-.51,151.87,4.12,189.55v0a2.63,2.63,0,0,0,.05.49C24.23,257.61,24.25,257.92,24.28,258.14Z" transform="translate(0.01 0)" fill="#f2b705"/><path d="M122.91,258.19c12.69,1.29,19.74-.9,19.74-.9l-9.33-189-6.14-.91c.23,37.81.51,151.87-4.11,189.54V257a4.1,4.1,0,0,1-.06.49C123,257.66,122.94,258,122.91,258.19Z" transform="translate(0.01 0)" fill="#f2b705"/><path d="M121.2,58.33l-4.47,1L115,58.5,73.55,39.2l-1.26-.58,1.26-.36,1.11-.33Z" transform="translate(0.01 0)" fill="#ffc25f"/><path d="M25.9,58.32l4.47,1,43.19,10v-32l-1.11.48Z" transform="translate(0.01 0)" fill="#f29f05"/><path d="M25.9,58.32l4.47,1,1.76-.87,41.42-19.3,1.26-.58-1.26-.37-1.11-.32Z" transform="translate(0.01 0)" fill="#ffc25f"/><path d="M69.84,63.11,35.43,54l5.19-5.09Z" transform="translate(0.01 0)" fill="#ffc25f"/><path d="M43.76,50.46l2.77,1.36,1-.51-3.8-.85Z" transform="translate(0.01 0)" fill="#ffc25f"/><path d="M103.33,50.47l-2.76,1.36-1-.51,3.79-.85Z" transform="translate(0.01 0)" fill="#ffc25f"/><path d="M121.2,58.33l-4.47,1-43.18,10v-32l1.11.49Z" transform="translate(0.01 0)" fill="#f29f05"/><path d="M77.25,63.12,111.67,54,106.48,49Z" transform="translate(0.01 0)" fill="#ffc25f"/></g><g id="body"><path d="M133.64,113.37c-.46,5.18-6.61,23.92-6.71,31a5.17,5.17,0,0,0,.32,2.17l6.4,11.89-1.84,6.8-1.5.55-.78.27-.93,2.46-1.95.72-.72,2.37-.41.06-3.4.56s-1.44,3.81-3.41,5.15H115a30.22,30.22,0,0,0,2.88-17.7,6.42,6.42,0,0,0-.1-.75,2.44,2.44,0,0,0-.28.14,4.9,4.9,0,0,0-2.4,3.16c-.52,2.37.51,6.6-1.45,7.73s-2.68.21-2.68.21a40.23,40.23,0,0,0,.72-5.57c-.1-1.14-.4-8.55-.4-8.55a39.2,39.2,0,0,0,2.07-3.47,37.33,37.33,0,0,0,3.07-7.49,20.19,20.19,0,0,0,.81-5.84v-.51c-.37-7.84-4.62-17.1-4.62-17.1l.49-1.07,3.32-7.37s-5.25-10.1-5.14-15l2-6.76c-.14.34-2.75,6.62-6,13-2.34,4.67-5,9.4-7.27,11.93l-.47.49s-.06.12-.15.34a24.53,24.53,0,0,0-1.18,3.64c-.06.24-.11.49-.18.74a24.08,24.08,0,0,0-.49,3.88v1.47a5.32,5.32,0,0,0,.05.89c0,.27.06.61.1.88a2.74,2.74,0,0,0,.07.5c0,.17.07.47.12.71.07.43.17.87.27,1.3.8,3.45,2.18,6.9,3.11,10.2a22.87,22.87,0,0,1,1,5.32c.2,5.57-10,36-10,36s7.58,12.85,8.08,20.9c0,.27,0,.54,0,.81,0,8-13.7,31.6-13.92,34.9,0,0,10.39,19.45,9.06,25.2,0,0-.57.3-1.58.71-3.39,1.36-11.73,3.87-20.07-.05,0,0-1.55-7.07,2.87-10.6L75.13,242,75,241.3s3.08-11.93,1.55-19.44c-.89-4.3-2.43-8.68-1.92-14.4.38-4.3,1.9-9.33,5.67-15.65l-4.41-6.41s.88-5.3.21-8.4a149.77,149.77,0,0,1-2.46-16.32A152.22,152.22,0,0,1,71.16,177c-.67,3.07.22,8.4.22,8.4L67,191.81c3.78,6.32,5.3,11.36,5.68,15.65.5,5.72-1,10.1-1.92,14.4-1.56,7.51,1.54,19.44,1.54,19.44l-.16.68-1.66,12.56c4.42,3.54,2.87,10.6,2.87,10.6-8.34,3.92-16.68,1.41-20.06.05-1-.41-1.59-.71-1.59-.71-1.33-5.74,9.05-25.2,9.05-25.2-.21-3.31-13.92-26.95-13.92-34.91v-.79c.51-8.05,8.09-20.9,8.09-20.9s-10.2-30.39-10-36a24.07,24.07,0,0,1,1-5.32c1-3.69,2.65-7.6,3.38-11.47.08-.41.14-.82.2-1.23a19,19,0,0,0,.09-4.13,24.78,24.78,0,0,0-1.95-7.71c-2.35-2.36-5.22-7.43-7.73-12.42-3.2-6.4-5.82-12.68-6-13l2,6.76c.1,4.95-5.15,15-5.15,15L34,120.6l.49,1.07s-4.24,9.26-4.62,17.1v.52c-.13,4.84,2.13,10,3.9,13.33,1.15,2.11,2.08,3.46,2.08,3.46s-.31,7.42-.41,8.55a40.23,40.23,0,0,0,.72,5.57s-.72.93-2.68-.21-.93-5.36-1.43-7.73a5,5,0,0,0-2.4-3.16l-.29-.14c0,.26-.07.5-.1.75a30.15,30.15,0,0,0,2.89,17.7H28.45c-2-1.34-3.41-5.15-3.41-5.15l-3.4-.56-.41-.06-.72-2.37-2-.72-.93-2.46-.76-.27-1.49-.55-1.85-6.8,6.42-11.89c1.95-4.08-5.86-27.35-6.4-33.18a11,11,0,0,1,.1-3.08c.62-3.24,2.74-4,2.74-4s-2.67-10.48-2.67-14.38,2.67-5.15,2.67-5.15c-5.33-8.18-2.3-18.48-2.3-18.48,3.55-7.46,12.07-9.94,12.07-9.94l6,.17,7.26,1.65,2.78.62,31.34,7.14h0l31.35-7.14,2.78-.62L115,58.52l6-.17s8.53,2.46,12.08,9.94c0,0,3,10.3-2.3,18.48,0,0,2.65,1.23,2.65,5.15s-2.65,14.38-2.65,14.38,2.11.78,2.73,4A11.14,11.14,0,0,1,133.64,113.37Z" transform="translate(0.01 0)" fill="#200f8c"/><path d="M87.09,189.47l-3.85,2.35c-1.07,0-5.14-7.71-5.14-7.71.86-2.77,0-14.75-.21-19.7S81.31,151,81.31,151A21.38,21.38,0,0,1,66,151s3.63,8.48,3.42,13.4-1.06,16.92-.21,19.7c0,0-4.07,7.71-5.14,7.71l-3.85-2.35s8.56,10.91,8.56,22.05-2.57,17.33-.61,21.4c.78,1.65,2.37,5.24,4,8.91l.16-.67s-3.07-11.94-1.55-19.45c.88-4.3,2.42-8.67,1.92-14.4-.38-4.3-1.9-9.32-5.68-15.64l4.42-6.41s-.88-5.3-.22-8.4c.35-1.64,1.49-7.47,2.12-13.16.15-1.36.26-2.71.35-4,0,.85.13,1.74.22,2.66.62,6,1.89,12.78,2.26,14.5.66,3.07-.22,8.4-.22,8.4l4.42,6.41C76.58,198,75.07,203,74.69,207.32c-.5,5.72,1,10.09,1.91,14.4,1.55,7.51-1.55,19.44-1.55,19.44l.16.68c1.63-3.69,3.21-7.27,4-8.91,1.93-4.07-.61-10.28-.61-21.41S87.09,189.47,87.09,189.47Z" transform="translate(0.01 0)" fill="#141259"/><path d="M21.54,145.33c.14,2.72-6.6,12.91-6.6,12.91l1.73,7.58-1.49-.55-1.85-6.8,6.4-11.88c2-4.08-5.86-27.35-6.39-33.19a10.9,10.9,0,0,1,.11-3.07c.62-3.24,2.73-4,2.73-4s-2.66-10.48-2.66-14.39,2.66-5.15,2.66-5.15c-5.32-8.17-2.3-18.47-2.3-18.47C17.43,60.83,26,58.35,26,58.35l6,.17S5.32,64,19.46,87.84c0,0-5.53-1.51-4.08,6.76L18,105.24l2.65-1c-.62.25-5.84,2.64-4.82,10.6C16.88,123.21,21.39,142.62,21.54,145.33Z" transform="translate(0.01 0)" fill="#2703a6"/><path d="M125.42,145.33c-.14,2.73,6.6,12.91,6.6,12.91l-1.73,7.58,1.5-.54,1.84-6.8-6.41-11.89c-2-4.08,5.86-27.35,6.39-33.19a10.9,10.9,0,0,0-.11-3.07c-.61-3.24-2.73-4-2.73-4s2.66-10.45,2.66-14.39-2.66-5.15-2.66-5.15c5.33-8.17,2.3-18.47,2.3-18.47C129.52,60.83,121,58.35,121,58.35l-6,.17S141.63,64,127.49,87.83c0,0,5.53-1.5,4.08,6.76L129,105.23l-2.65-1c.62.26,5.84,2.65,4.82,10.6C130.05,123.21,125.57,142.61,125.42,145.33Z" transform="translate(0.01 0)" fill="#2703a6"/><path d="M52.86,118.81c10.85,6.66,20.71,4.2,20.71,4.2v-22.2C45.24,100.06,52.86,118.81,52.86,118.81Z" transform="translate(0.01 0)" fill="#141259"/><path d="M73.58,100.79V123s9.83,2.45,20.71-4.2C94.29,118.79,101.94,100.05,73.58,100.79Z" transform="translate(0.01 0)" fill="#141259"/><path d="M83.92,241.6s8.16,10.13,10,23.61c1-.41,1.58-.71,1.58-.71,1.33-5.74-9.06-25.2-9.06-25.2.22-3.32,13.92-27,13.92-34.91q0-.4,0-.81c-.5-8.05-8.08-20.9-8.08-20.9s10.2-30.4,10-36a23,23,0,0,0-1-5.32,115.84,115.84,0,0,1-2.62,15.37c-5,22.09-9.42,27.1-9.42,27.1s10.31,11.49,8.24,23S83.92,241.6,83.92,241.6Z" transform="translate(0.01 0)" fill="#2703a6"/><path d="M63.2,241.58s-8.13,10.14-10,23.6c-1-.42-1.58-.71-1.58-.71-1.33-5.75,9.06-25.2,9.06-25.2-.22-3.31-13.92-27-13.92-34.91v-.8c.5-8.05,8.09-20.9,8.09-20.9s-10.2-30.4-10-36a23.49,23.49,0,0,1,1-5.33,117,117,0,0,0,2.61,15.34c5,22.12,9.44,27.1,9.44,27.1s-10.32,11.48-8.26,23S63.2,241.58,63.2,241.58Z" transform="translate(0.01 0)" fill="#2703a6"/><path d="M73.86,265.1l.86.38c10.53,4.4,20.8-1,20.8-1,1.32-5.75-9.06-25.2-9.06-25.2.22-3.32,13.91-27,13.91-34.92v-.8c-3.81,1.58-11.26,3.37-25.75,3.86-.5,5.73,1,10.1,1.92,14.4,1.55,7.51-1.55,19.44-1.55,19.44l1.77,13.26-.1.09C72.33,258.14,73.86,265.1,73.86,265.1Z" transform="translate(0.01 0)" fill="#f29f05"/><path d="M73.31,265.11l-.86.38c-10.54,4.4-20.79-1-20.79-1-1.33-5.75,9.06-25.21,9.06-25.21-.23-3.31-13.92-27-13.92-34.9v-.81c3.81,1.58,11.26,3.37,25.75,3.86.5,5.72-1,10.09-1.92,14.4-1.54,7.51,1.55,19.44,1.55,19.44L70.44,254.5l.1.09C74.85,258.15,73.31,265.11,73.31,265.11Z" transform="translate(0.01 0)" fill="#f29f05"/><path d="M84,241.58s8.16,10.13,10,23.6l.17-.06c.45-.18.81-.34,1-.46l.13-.06.24-.12c1.32-5.74-9.06-25.2-9.06-25.2.22-3.32,13.92-27,13.92-34.91v-.81a26.68,26.68,0,0,1-2.6.91,16.57,16.57,0,0,1-.31,2.32C95.43,218.3,84,241.58,84,241.58Z" transform="translate(0.01 0)" fill="#ffc25f"/><path d="M73.8,265.08c.29.14.57.27.85.38,0-3.18,1.23-11.15,13.73-9.87,0,0-7.34-2.82-11.81-1C72.28,258.13,73.8,265.08,73.8,265.08Z" transform="translate(0.01 0)" fill="#ffc25f"/><path d="M63.22,241.52s-8.15,10.14-10,23.61l-.17-.07c-.45-.18-.8-.34-1.05-.46l-.13-.06-.24-.11c-1.33-5.75,9.06-25.2,9.06-25.2-.22-3.32-13.92-27-13.92-34.91v-.81a26.5,26.5,0,0,0,2.59.91,16.61,16.61,0,0,0,.26,2.33C51.72,218.25,63.22,241.52,63.22,241.52Z" transform="translate(0.01 0)" fill="#ffc25f"/><path d="M73.36,265l-.86.38c0-3.19-1.23-11.16-13.72-9.88,0,0,7.37-2.82,11.81-1C74.9,258.07,73.36,265,73.36,265Z" transform="translate(0.01 0)" fill="#ffc25f"/><path d="M74,90.88s29.7,4.3,33.19,14l.1-.13c3.21-6.4,5.82-12.68,6-13l-1.95,6.76c-.1,5,5.15,15,5.15,15L112.63,122s4.23,9.26,4.61,17.1c.37-3.59-1-8.1-1.17-14.3-.3-9,7.05-18.21,7.27-18.5l-4.54,3.79c-3.4-3.5-3.83-11.6-3.74-16.72,3.08-5.84,5.68-16.6,5.77-16.94-.28.35-9,11.63-17.15,14.14C103.69,90.57,81.77,88.67,74,90.88Z" transform="translate(0.01 0)" fill="#141259"/><path d="M73.16,90.88s-29.7,4.3-33.19,14l-.1-.13c-3.2-6.4-5.82-12.68-6-13l2,6.76c.11,5-5.14,15-5.14,15L34.53,122s-4.24,9.26-4.62,17.1c-.37-3.59,1-8.1,1.17-14.3.3-9-7-18.21-7.28-18.5l4.54,3.79c3.4-3.5,3.84-11.6,3.75-16.72C29,87.51,26.4,76.75,26.32,76.41c.28.35,9,11.63,17.15,14.14C43.46,90.57,65.38,88.67,73.16,90.88Z" transform="translate(0.01 0)" fill="#141259"/><path d="M133.65,158.48l-1.84,6.8-1.5.54-.77.28-.93,2.46-2,.72-.72,2.36-.41.07-3.4.55s-1.44,3.81-3.4,5.15H115a30.12,30.12,0,0,0,2.89-17.69,6.42,6.42,0,0,0-.1-.75l-.29.14a5,5,0,0,0-2.4,3.15c-.51,2.38.51,6.6-1.44,7.74s-2.68.21-2.68.21a40.23,40.23,0,0,0,.72-5.57c-.1-1.14-.41-8.55-.41-8.55a39.3,39.3,0,0,0,2.08-3.47,37.57,37.57,0,0,0,3.07-7.49c1.79.68,5.1,1.16,10.45-.73a4.93,4.93,0,0,0,.32,2.18Z" transform="translate(0.01 0)" fill="#dfb28b"/><path d="M13.49,158.47l1.84,6.8,1.5.55.77.27.93,2.46,2,.72.72,2.37.4.07,3.4.55s1.45,3.81,3.4,5.15H32.1a30.15,30.15,0,0,1-2.88-17.7,6.42,6.42,0,0,1,.1-.75,2.49,2.49,0,0,1,.28.15,4.9,4.9,0,0,1,2.4,3.15c.51,2.37-.51,6.6,1.44,7.73s2.68.21,2.68.21a40.23,40.23,0,0,1-.72-5.57c.1-1.14.41-8.55.41-8.55a39,39,0,0,1-2.07-3.46,38.29,38.29,0,0,1-3.08-7.5c-1.79.69-5.1,1.16-10.45-.73a5.07,5.07,0,0,1-.31,2.18Z" transform="translate(0.01 0)" fill="#dfb28b"/><path d="M83,132.78c0,2.09-4.13,3.79-9.22,3.79s-9.21-1.7-9.21-3.79S68.65,129,73.73,129,83,130.69,83,132.78Z" transform="translate(0.01 0)" fill="#f29f05"/><path d="M73.71,135.33c-5,0-8-1.65-8-2.56s3-2.55,8-2.55,8,1.65,8,2.55S78.68,135.33,73.71,135.33Z" transform="translate(0.01 0)" fill="#ffc25f"/><path d="M100,116.36l-.47.49-.15.34a34.77,34.77,0,0,0-9.91,8.4,32.89,32.89,0,0,0-2.67,3.84c-.41.67-.8,1.34-1.17,2l-.54,1a8.63,8.63,0,0,1-.62,1.06,9,9,0,0,1-3.73,3.08,12.62,12.62,0,0,1-4.64,1.07,13.52,13.52,0,0,0,4.45-1.45,8.52,8.52,0,0,0,3.36-3.08,7.46,7.46,0,0,0,.53-1q.24-.54.51-1.08c.36-.72.73-1.42,1.13-2.11a32.58,32.58,0,0,1,2.71-4,30.09,30.09,0,0,1,7.09-6.42A32.22,32.22,0,0,1,100,116.36Z" transform="translate(0.01 0)" fill="#f29f05"/><path d="M97.89,129.9h0a17.52,17.52,0,0,1-10.5,3c1.19-.29,2.37-.56,3.53-.9a35.13,35.13,0,0,0,6.59-2.66l.27-.15C97.81,129.43,97.84,129.67,97.89,129.9Z" transform="translate(0.01 0)" fill="#f29f05"/><path d="M98.22,120.83c-.41.24-.82.5-1.23.76a22.67,22.67,0,0,0-3.07,2.46A24.43,24.43,0,0,0,91.29,127a18.93,18.93,0,0,0-2.08,3.42l-.53,1.17,1.23-.29a17.77,17.77,0,0,0,3.27-1.12,28.65,28.65,0,0,0,3-1.53c.46-.25.9-.52,1.35-.81,0-.3,0-.61,0-.88l-1.74.83c-1,.45-2,.9-3.07,1.29l-1.68.61a21.43,21.43,0,0,1,1.22-1.92,29.17,29.17,0,0,1,2.37-2.93,34.14,34.14,0,0,1,2.72-2.66l.61-.54Z" transform="translate(0.01 0)" fill="#f29f05"/><path d="M47.12,116.36c.16.17.31.34.47.49l.14.34A34.44,34.44,0,0,1,60.3,129.42c.41.67.8,1.35,1.16,2l.55,1a8.06,8.06,0,0,0,.61,1.06,9,9,0,0,0,3.74,3.07A12.59,12.59,0,0,0,71,137.72a13.39,13.39,0,0,1-4.45-1.46,8.52,8.52,0,0,1-3.37-3.07,8.16,8.16,0,0,1-.52-1c-.16-.36-.34-.71-.52-1.07-.35-.72-.73-1.42-1.13-2.12a33.19,33.19,0,0,0-2.7-3.95,30.14,30.14,0,0,0-7.09-6.43A33.19,33.19,0,0,0,47.12,116.36Z" transform="translate(0.01 0)" fill="#f29f05"/><path d="M49.25,129.9h0a17.48,17.48,0,0,0,10.5,3c-1.2-.29-2.37-.56-3.52-.9a33.92,33.92,0,0,1-3.39-1.17,31.93,31.93,0,0,1-3.24-1.53l-.26-.14A4.43,4.43,0,0,1,49.25,129.9Z" transform="translate(0.01 0)" fill="#f29f05"/><path d="M48.93,120.83c.41.24.82.5,1.23.76a22.67,22.67,0,0,1,3.07,2.46A23.61,23.61,0,0,1,55.86,127a18.93,18.93,0,0,1,2.08,3.42l.53,1.17-1.23-.29A17.77,17.77,0,0,1,54,130.16a28.65,28.65,0,0,1-3-1.53c-.46-.25-.9-.52-1.35-.81,0-.3,0-.61,0-.88l1.74.83c1,.45,2,.9,3,1.29l1.68.61a21.43,21.43,0,0,0-1.22-1.92,29.26,29.26,0,0,0-2.38-2.93,34,34,0,0,0-2.71-2.66l-.62-.54Z" transform="translate(0.01 0)" fill="#f29f05"/><path d="M124.36,171.86a63.83,63.83,0,0,0,2.42-9v-2.59l1.29,2.3-1.29,6.34-.81,2.74Z" transform="translate(0.01 0)" fill="#cea28b"/><path d="M128.61,168.58l.93-2.48,1-4.26-1-2.51.21,3.44-1.74,6Z" transform="translate(0.01 0)" fill="#cea28b"/><path d="M117.76,177.37h1c2-1.34,3.4-5.15,3.4-5.15h.06a32.07,32.07,0,0,0,1.89-9.44l-.78-1.94A40,40,0,0,1,117.76,177.37Z" transform="translate(0.01 0)" fill="#cea28b"/><path d="M23,171.94a62.38,62.38,0,0,1-2.42-9v-2.59l-1.3,2.3L20.52,169l.82,2.74Z" transform="translate(0.01 0)" fill="#cea28b"/><path d="M18.7,168.65l-.93-2.47-1-4.26,1-2.51-.22,3.44,1.74,6Z" transform="translate(0.01 0)" fill="#cea28b"/><path d="M29.55,177.46h-1c-2-1.34-3.4-5.16-3.4-5.16h-.06a32.47,32.47,0,0,1-1.9-9.44l.79-1.94A40.12,40.12,0,0,0,29.55,177.46Z" transform="translate(0.01 0)" fill="#cea28b"/><path d="M88.53,13.38a12.19,12.19,0,0,1-.84,4.47c0,.14-.1.27-.16.4h0a12.42,12.42,0,0,1-1.73,2.94v0l-.24.29-.14.17A13,13,0,0,1,84.08,23a15.19,15.19,0,0,1-8.57,3.69,14.11,14.11,0,0,1-1.59.08h-.06a14.84,14.84,0,0,1-1.63-.09,15.2,15.2,0,0,1-7.08-2.58l-.38-.26c-.37-.28-.74-.57-1.09-.88a13.52,13.52,0,0,1-1.34-1.39,6.4,6.4,0,0,1-.41-.5,12.73,12.73,0,0,1-1.61-2.73,12.33,12.33,0,0,1-1-5c0-5.79,4-10.73,9.64-12.6h0a16,16,0,0,1,5-.8C82,0,88.53,6,88.53,13.38Z" transform="translate(0.01 0)"/><path d="M73.89,41.24V55.93C66.39,53.24,61.6,45.48,61.6,45.48l.61-7.6.26-3.07Z" transform="translate(0.01 0)" fill="#ecc19c"/><path d="M73.89,41.24V51.6c-2.72-3.07-8.06-9.1-10.18-11.47a10.52,10.52,0,0,1-1.52-2.22l.25-3.07Z" transform="translate(0.01 0)" fill="#cf9e76"/><path d="M62.34,20.84v.72l-.1,2.36L62,29.46l-.42-.24a7.69,7.69,0,0,1-3.35-5.29.57.57,0,0,0,0-.26c-.53-3.9,1.75-5.49,1.75-5.49a2.39,2.39,0,0,1,.37.15,3.19,3.19,0,0,1,1.15.91A5,5,0,0,1,62,20h0A6.07,6.07,0,0,1,62.34,20.84Z" transform="translate(0.01 0)" fill="#dfb28b"/><path d="M73.84,3.17V43.45a10.54,10.54,0,0,1-5.12-1.89L68,39.31l-6.38-3c-.62-3.6,1.17-30,1.17-30l2-.56Z" transform="translate(0.01 0)" fill="#dfb28b"/><path d="M73.84,43.08v.37a10.52,10.52,0,0,1-5.12-1.88L68,39.32l-6.38-3c-.62-3.6,1.17-30,1.17-30l2-.56.73,2.36.45,10-1.79,2.25-1,4.94L67,29.7s.45,6.33,1.12,7.91L69.52,41A19.84,19.84,0,0,0,73.84,43.08Z" transform="translate(0.01 0)" fill="#ecc19c"/><path d="M73.65,19.6S73,22.55,72.1,23.49a6.81,6.81,0,0,1-2.74,1.4s-4.07-1.76-5.21-4.5L66,18.5S71.67,20.37,73.65,19.6Z" transform="translate(0.01 0)" fill="#cf9e76"/><path d="M72.07,27.53s.65,1.67,1.76,2.09v-1.8Z" transform="translate(0.01 0)" fill="#cf9e76"/><path d="M73.85,19.84a4.23,4.23,0,0,0-.68.78l-1.1,6.91a18,18,0,0,0,1.79.29Z" transform="translate(0.01 0)" fill="#ecc19c"/><path d="M73.85,31s-.18-.72-1.62-.26a20,20,0,0,0-3,1.3l4.62-.37Z" transform="translate(0.01 0)" fill="#cf9e76"/><path d="M73.84,33.78v1.3c-1.23,0-2.2-.62-2.2-1.3Z" transform="translate(0.01 0)" fill="#cf9e76"/><path d="M73.8,41.24V55.93c7.5-2.69,12.29-10.45,12.29-10.45l-.61-7.6-.26-3.07Z" transform="translate(0.01 0)" fill="#ecc19c"/><path d="M73.8,41.24V51.6c2.72-3.07,8-9.1,10.18-11.47a10.52,10.52,0,0,0,1.52-2.22l-.26-3.07Z" transform="translate(0.01 0)" fill="#cf9e76"/><path d="M85.35,20.84a4.36,4.36,0,0,1,2.46-2.65s2.38,1.66,1.71,5.75a7.51,7.51,0,0,1-3.78,5.53Z" transform="translate(0.01 0)" fill="#dfb28b"/><path d="M73.84,3.17V43.45A10.54,10.54,0,0,0,79,41.56l.72-2.25,6.38-3c.62-3.6-1.16-30-1.16-30L82.5,6Z" transform="translate(0.01 0)" fill="#dfb28b"/><path d="M73.84,43.08v.37A10.52,10.52,0,0,0,79,41.57l.72-2.25,6.38-3c.62-3.6-1.16-30-1.16-30l-2-.56L82.2,8.12l-.45,10,1.79,2.25.95,4.94L80.67,29.7s-.45,6.33-1.12,7.91L78.15,41A19.55,19.55,0,0,1,73.84,43.08Z" transform="translate(0.01 0)" fill="#ecc19c"/><path d="M74,19.6s.66,2.95,1.56,3.89a6.75,6.75,0,0,0,2.74,1.4s4.06-1.76,5.2-4.5L81.69,18.5S76,20.37,74,19.6Z" transform="translate(0.01 0)" fill="#cf9e76"/><path d="M82.43,22.44h0a7.34,7.34,0,0,1-2.46.68l-.2,0a3.45,3.45,0,0,1-.55.07,9.54,9.54,0,0,1-1.85-.05h-.15l-.36-.05L75.78,23l.35-1.51.05-.23h0l.56-.12.27-.05.72-.13h0l.72-.1h0c.24,0,.47-.06.7-.07h.44a2.47,2.47,0,0,1,1.23.19,4,4,0,0,1,.61.48l.26.25A6.88,6.88,0,0,1,82.43,22.44Z" transform="translate(0.01 0)" fill="#e6e7e8"/><path d="M80.06,22.23a1.69,1.69,0,0,1-.28.93,3.47,3.47,0,0,1-.55.08,5,5,0,0,1-.55,0h-.77l-.53,0h-.15l-.36-.05a1.68,1.68,0,0,1-.26-.89,1.69,1.69,0,0,1,.2-.8,2,2,0,0,1,.27-.38.6.6,0,0,1,.08-.08c.62-.13,1.3-.24,1.89-.31l.18.1a1.59,1.59,0,0,1,.51.49A1.75,1.75,0,0,1,80.06,22.23Z" transform="translate(0.01 0)" fill="#29abe2"/><path d="M82.86,22.7l-.45-.25h0s-1.88-1.32-2.18-1.23h-.48l-2.93.19-.68,0h-.52a3,3,0,0,1,.58-.26h0c.3-.1.61-.18.92-.25A18.86,18.86,0,0,1,79,20.63c.39-.06.75-.1,1-.12a1.08,1.08,0,0,1,.89.31l.58.56.25.25Z" transform="translate(0.01 0)"/><path d="M79.47,22.19a1.12,1.12,0,0,1-.79,1.07h-.77a1.12,1.12,0,0,1-.71-1,1.14,1.14,0,0,1,2.27,0Z" transform="translate(0.01 0)"/><path d="M65.42,22.51h0a7.43,7.43,0,0,0,2.46.67,1.29,1.29,0,0,1,.19,0,3.57,3.57,0,0,0,.56.07,9.44,9.44,0,0,0,1.84-.05h.16l.36,0,1.07-.12-.34-1.52-.06-.23h0l-.55-.12-.28-.05L70.07,21h0l-.72-.1h0c-.23,0-.47-.06-.69-.07h-.44A2.59,2.59,0,0,0,67,21a4,4,0,0,0-.61.48l-.26.25A5.43,5.43,0,0,0,65.42,22.51Z" transform="translate(0.01 0)" fill="#e6e7e8"/><path d="M71.23,22.29a1.76,1.76,0,0,1-.25.89l-.36.05h-.16l-.45,0c-.3,0-.62,0-.94,0h-.44a3.31,3.31,0,0,1-.55-.07,1.71,1.71,0,0,1,0-1.92,1.7,1.7,0,0,1,.52-.48.81.81,0,0,1,.18-.1,18,18,0,0,1,1.88.31.24.24,0,0,1,.09.08,2.51,2.51,0,0,1,.27.37A1.71,1.71,0,0,1,71.23,22.29Z" transform="translate(0.01 0)" fill="#29abe2"/><path d="M65,22.76l.45-.25h0s1.89-1.32,2.19-1.23h.48l2.93.19.67,0,.53,0a4.29,4.29,0,0,0-.58-.26H71.6a9.41,9.41,0,0,0-.91-.25c-.62-.13-1.3-.24-1.89-.31-.39-.06-.74-.09-1-.12a1.11,1.11,0,0,0-.9.31l-.57.56-.26.25Z" transform="translate(0.01 0)"/><path d="M70.67,22.25a1.15,1.15,0,0,1-.66,1c-.3,0-.62,0-.94,0h0a1.15,1.15,0,1,1,1.61-1.06Z" transform="translate(0.01 0)"/><path d="M75.62,27.53S75,29.2,73.85,29.62v-1.8Z" transform="translate(0.01 0)" fill="#cf9e76"/><path d="M73.84,19.84a4.64,4.64,0,0,1,.68.78l1.1,6.91a18,18,0,0,1-1.79.29Z" transform="translate(0.01 0)" fill="#ecc19c"/><path d="M74.5,19.74s0-.15,1.23.46c0,0,5.85-.55,7-.5a5.12,5.12,0,0,1,1.57,1,5,5,0,0,0-1.92-2.37s-6.35.15-6.76.05S74.5,19.74,74.5,19.74Z" transform="translate(0.01 0)"/><path d="M73.12,19.6s0-.14-1.18.5c0,0-5.86-.44-7-.37a5.16,5.16,0,0,0-1.55,1,4.86,4.86,0,0,1,1.84-2.4s6.35,0,6.76-.08S73.12,19.6,73.12,19.6Z" transform="translate(0.01 0)"/><path d="M73.84,31s.18-.72,1.62-.26a19.53,19.53,0,0,1,3,1.3l-4.62-.37Z" transform="translate(0.01 0)" fill="#cf9e76"/><path d="M73.84,33.78v1.3c1.23,0,2.22-.62,2.22-1.3Z" transform="translate(0.01 0)" fill="#cf9e76"/><path d="M84.31,5.36s-1,6.15-3.07,6.84c0,0-8.55-1.54-8.3,1a1.8,1.8,0,0,0,1.72,1.87,1.71,1.71,0,0,0,.39,0s-4,.75-3.41-2.32c0,0-9.55,2.32-9.48,8.32,0,0-.13-2.25-1.5-3s.21-11.52,3.28-13S74.43.32,84.31,5.36Z" transform="translate(0.01 0)"/><path d="M87.78,18.22s.88-12.71-4.17-13c0,0,.46,4.86-2.07,7.37,0,0,3.79,5.86,4.15,9.91,0,0-.12-3.89,2.11-4.3" transform="translate(0.01 0)"/><g id="s"><path d="M88.93,84.49a35.55,35.55,0,0,0-11.36-2.58c0-.3,0-.61.07-.91a1.71,1.71,0,0,0-.26-1.56,2.91,2.91,0,0,0-1.8-.41,3.59,3.59,0,0,0-1.8.32c-.49.32-.71.62-.66,1a1.31,1.31,0,0,0,.42,1.17,5.75,5.75,0,0,0,1.7.8c1.75.44,3.55,1,5.36,1.62a17.91,17.91,0,0,1,6.18,3.4c.85.85.65,1.66.08,2.61a5.33,5.33,0,0,1-2.31,2.27,15,15,0,0,1-3.62,1.28,21.13,21.13,0,0,1-5,.51,24.16,24.16,0,0,1-5.42-.62,16.11,16.11,0,0,1-3.8-1.3,5.48,5.48,0,0,1-2.29-2.4L64,89a44,44,0,0,1,9.34-1.42l.09,1.12a3.36,3.36,0,0,0,.39,1.81,1.76,1.76,0,0,0,1.22.41,2.43,2.43,0,0,0,1.43-.28,1.53,1.53,0,0,0,.56-1.18,1.75,1.75,0,0,0-.43-1.56,24.33,24.33,0,0,0-6.52-1.5c-3-.27-5.45-.36-7.15-.62-1.23-.33-2.05-.75-2.31-1.45-.68-.68-.75-1.65,0-3A11.2,11.2,0,0,1,65.18,78a24.54,24.54,0,0,1,17.47-.92,16.26,16.26,0,0,1,4.92,2.56,6,6,0,0,1,1.62,2,2.26,2.26,0,0,1-.42,1.68l-.46.9Z" transform="translate(0.01 0)" fill="#f29f05"/><path d="M88.16,78.58,87,77.48l17.48-4.82Z" transform="translate(0.01 0)" fill="#f29f05"/><path d="M83.13,75.62l-2-.74,11.18-8.6Z" transform="translate(0.01 0)" fill="#f29f05"/><path d="M89.28,80.44l-.42-.82,13.7-1.78Z" transform="translate(0.01 0)" fill="#f29f05"/><path d="M85.8,76.8l-1-.61,10.62-5Z" transform="translate(0.01 0)" fill="#f29f05"/><path d="M79.36,74.65l-1.55-.29L82,67.25Z" transform="translate(0.01 0)" fill="#f29f05"/><path d="M89.56,82.35v-.62l17.77.13Z" transform="translate(0.01 0)" fill="#f29f05"/><path d="M61.46,78.58l1.12-1.1L45,72.66Z" transform="translate(0.01 0)" fill="#f29f05"/><path d="M66.35,75.62l2.1-.74-11.18-8.6Z" transform="translate(0.01 0)" fill="#f29f05"/><path d="M60.34,80.44l.28-.82-13.7-1.78Z" transform="translate(0.01 0)" fill="#f29f05"/><path d="M63.68,76.8l1.12-.61-10.62-5Z" transform="translate(0.01 0)" fill="#f29f05"/><path d="M70.13,74.65l1.67-.29-4.3-7.11Z" transform="translate(0.01 0)" fill="#f29f05"/><path d="M60.06,82.37,60,81.69l-18.78.14Z" transform="translate(0.01 0)" fill="#f29f05"/><path d="M75.86,74.21h-2.1L74,57.69Z" transform="translate(0.01 0)" fill="#f29f05"/></g></g></svg>